<?xml version="1.0" encoding="iso-8859-1"?>
<!-- Generator: Adobe Illustrator 18.0.0, SVG Export Plug-In . SVG Version: 6.00 Build 0)  -->
<!DOCTYPE svg PUBLIC "-//W3C//DTD SVG 1.1//EN" "http://www.w3.org/Graphics/SVG/1.1/DTD/svg11.dtd">
<svg version="1.1" id="Capa_1" xmlns="http://www.w3.org/2000/svg" xmlns:xlink="http://www.w3.org/1999/xlink" x="0px" y="0px"
	 viewBox="0 0 214 214" style="enable-background:new 0 0 214 214;" xml:space="preserve">
<path d="M214,73.36c0-14.248-26.533-26.486-64.461-31.816C147.925,19.452,129.504,2.027,107,2.027S66.075,19.452,64.461,41.544
	C26.533,46.874,0,59.112,0,73.36c0,13.623,24.255,25.407,59.534,31.075l-26.844,67.802c-2.41,6.087-2.153,12.957,0.705,18.85
	c2.854,5.882,8.079,10.327,14.337,12.197c19.387,5.793,39.328,8.689,59.269,8.689s39.882-2.896,59.269-8.689
	c6.258-1.869,11.483-6.315,14.337-12.197c2.858-5.892,3.115-12.762,0.706-18.849l-26.845-67.803
	C189.744,98.768,214,86.983,214,73.36z M107,30.912c7.548,0,13.667,6.119,13.667,13.667S114.548,58.246,107,58.246
	s-13.667-6.119-13.667-13.667S99.452,30.912,107,30.912z M167.364,177.759c0.88,2.221,0.789,4.629-0.255,6.779
	c-1.038,2.141-2.862,3.694-5.136,4.374v-0.001c-35.963,10.747-73.982,10.747-109.947,0.001c-2.273-0.68-4.098-2.233-5.136-4.374
	c-1.044-2.15-1.134-4.558-0.254-6.779l28.238-71.323c10.141,1.033,20.932,1.591,32.126,1.591c11.193,0,21.984-0.558,32.125-1.591
	L167.364,177.759z M92.421,138.48L80.08,174.131c-1.073,3.103-3.979,5.049-7.087,5.049c-0.813,0-1.641-0.134-2.453-0.415
	c-3.914-1.354-5.989-5.626-4.634-9.54l12.341-35.651c1.354-3.914,5.623-5.988,9.54-4.634
	C91.701,130.294,93.776,134.566,92.421,138.48z"/>
<g>
</g>
<g>
</g>
<g>
</g>
<g>
</g>
<g>
</g>
<g>
</g>
<g>
</g>
<g>
</g>
<g>
</g>
<g>
</g>
<g>
</g>
<g>
</g>
<g>
</g>
<g>
</g>
<g>
</g>
</svg>
